<?xml version="1.0" encoding="UTF-8" standalone="no"?>
<!-- Created with Inkscape (http://www.inkscape.org/) -->

<svg
   version="1.1"
   id="svg2"
   width="960"
   height="528"
   viewBox="0 0 960 528"
   sodipodi:docname="Warrior Wash logo EPS.eps"
   xmlns:inkscape="http://www.inkscape.org/namespaces/inkscape"
   xmlns:sodipodi="http://sodipodi.sourceforge.net/DTD/sodipodi-0.dtd"
   xmlns="http://www.w3.org/2000/svg"
   xmlns:svg="http://www.w3.org/2000/svg">
  <defs
     id="defs6" />
  <sodipodi:namedview
     id="namedview4"
     pagecolor="#ffffff"
     bordercolor="#000000"
     borderopacity="0.25"
     inkscape:showpageshadow="2"
     inkscape:pageopacity="0.0"
     inkscape:pagecheckerboard="0"
     inkscape:deskcolor="#d1d1d1" />
  <g
     id="g8"
     inkscape:groupmode="layer"
     inkscape:label="ink_ext_XXXXXX"
     transform="matrix(1.3333333,0,0,-1.3333333,0,528)">
    <g
       id="g10"
       transform="scale(0.1)">
      <path
         d="m 3621.28,115.637 -0.1,-0.012 -0.1,0.016 z"
         style="fill:#172349;fill-opacity:1;fill-rule:evenodd;stroke:none"
         id="path12" />
      <path
         d="M 5440.91,1457.81 C 5321.96,1111.73 5095.57,812.203 4800.87,593.965 4460,341.551 4047.03,210.621 3623.92,210.621 c -423.12,0 -836.1,130.93 -1176.96,383.344 -294.76,218.277 -521.03,517.825 -640.02,863.845 h 3633.97"
         style="fill:#172349;fill-opacity:1;fill-rule:evenodd;stroke:none"
         id="path14" />
      <path
         d="m 652.258,2221.91 h 4.633 L 529.93,1762.57 H 387.539 L 329.543,1982.6 269.277,1762.57 H 127.66 L 0,2221.91 H 4.65625 L 127.66,1779.32 h 141.617 l 60.266,220.03 57.996,-220.03 H 529.93 Z M 1109.81,1848.57 H 986.445 l -29.039,-86 H 809.805 l 6.336,16.75 h 141.265 l 29.039,86 h 123.365 l 28.38,-86 h 141.99 l 6.36,-16.75 h -148.35 z m 788.05,-69.25 10.27,-16.75 h -164.05 l -87.77,157.66 h -21.24 v 16.76 h 21.24 l 87.77,-157.67 z m -262.79,0 v -16.75 h -140.93 v 16.75 z m 236.73,298.57 c 0.12,-2.79 0.19,-5.61 0.19,-8.45 0,-54.74 -24.33,-94.25 -68.6,-119.25 l -7.75,12.63 c 46.8,23.48 73.66,61.6 76.16,115.07 z m 643.47,-298.57 10.27,-16.75 H 2361.5 l -87.78,157.66 h -21.24 v 16.76 h 21.24 l 87.78,-157.67 z m -262.79,0 v -16.75 h -140.93 v 16.75 z m 236.73,298.57 c 0.13,-2.79 0.19,-5.61 0.19,-8.45 0,-54.74 -24.33,-94.25 -68.6,-119.25 l -7.74,12.63 c 46.79,23.48 73.65,61.6 76.15,115.07 z m 380.69,-298.57 v -16.75 h -140.94 v 16.75 z m 470.39,-26.52 c -65.16,0 -124.27,19.04 -170.5,65.91 -46.62,47.25 -64.95,107.63 -64.95,173.2 0,2.81 0.04,5.6 0.11,8.39 1.51,-62.34 20.21,-119.6 64.84,-164.84 46.23,-46.87 105.34,-65.91 170.5,-65.91 65.07,0 124.14,18.99 170.21,65.93 44.44,45.31 62.99,102.61 64.48,164.87 0.07,-2.8 0.11,-5.62 0.11,-8.44 0,-65.46 -18.18,-125.87 -64.59,-173.18 -46.07,-46.94 -105.14,-65.93 -170.21,-65.93 z m 873.46,26.52 10.27,-16.75 h -164.05 l -87.77,157.66 h -21.24 v 16.76 h 21.24 l 87.77,-157.67 z m -262.79,0 v -16.75 h -140.93 v 16.75 z m 236.73,298.57 c 0.13,-2.79 0.19,-5.61 0.19,-8.45 0,-54.74 -24.33,-94.25 -68.6,-119.25 l -7.74,12.63 c 46.79,23.48 73.65,61.6 76.15,115.07 z m 1167.24,144.02 h 4.64 l -126.96,-459.34 h -142.4 l -57.98,220.03 -60.27,-220.03 h -141.62 l -127.66,459.34 h 4.65 l 123.01,-442.59 h 141.62 l 60.27,220.03 57.98,-220.03 h 142.4 z m 457.56,-373.34 h -123.37 l -29.03,-86 h -147.61 l 6.34,16.75 h 141.27 l 29.03,86 h 123.37 l 28.38,-86 h 141.99 l 6.36,-16.75 h -148.35 z m 737.1,229.99 v -15.65 h -122.95 c -3.12,1.37 -6.21,2.7 -9.23,3.98 l -0.18,8.15 c -0.24,11.34 -2.19,26.33 -10.95,34.57 -9.03,8.5 -25.65,9.98 -37.37,9.98 -12.09,0 -32.24,-0.55 -38.87,-12.05 -1.64,2.25 -2.19,4.9 -2.19,7.98 0,20.01 26.44,20.82 41.06,20.82 11.72,0 28.34,-1.48 37.37,-9.98 8.76,-8.24 10.71,-23.23 10.95,-34.57 l 0.27,-12.12 h 132.09 z m 5.05,-170.35 c 0.15,-2.69 0.23,-5.41 0.23,-8.16 0,-44.85 -17.42,-81.75 -53.49,-108.64 -39.79,-29.65 -90.47,-38.61 -139.07,-38.61 -50.19,0 -104.88,8.79 -144.8,41.58 -37.54,30.84 -51.71,74.3 -51.71,121.96 v 16.75 c 0,-47.65 14.17,-91.11 51.71,-121.96 39.92,-32.79 94.61,-41.58 144.8,-41.58 48.6,0 99.28,8.96 139.07,38.62 33.73,25.14 51.16,59.06 53.26,100.04 z m -145.16,-12.27 c -0.91,1.78 -2.21,3.42 -3.93,4.95 -8.21,7.3 -24.96,14.7 -34.94,19.05 l -47.46,20.17 c -8.27,3.52 -17.01,7.4 -25.88,11.65 l -0.13,1.54 h -3.07 c -27.5,13.4 -55.87,30.26 -75.33,50.56 -22.15,23.1 -32.49,51.34 -32.49,83.18 0,2.92 0.08,5.82 0.23,8.67 1.63,-28.54 12,-53.96 32.26,-75.1 26.51,-27.65 69.56,-48.93 104.41,-63.74 l 47.46,-20.17 c 9.98,-4.36 26.73,-11.76 34.94,-19.06 4.07,-3.61 5.74,-7.8 5.74,-13.21 0,-3.27 -0.65,-6.07 -1.81,-8.49 z M 7200,1779.32 v -16.75 h -141.6 v 16.75 z m -141.6,165.67 h -131.61 v 16.76 h 131.61 z m -131.61,-165.67 v -16.75 h -140.94 v 16.75 z m -5858.16,197.44 -20.56,72.81 -20.89,-72.81 h -4.8 l 25.69,89.57 25.29,-89.57 z m 659.28,103.91 c -1.03,8.02 -3.93,15.84 -11.09,20.23 -13.21,8.13 -43.46,8.92 -58.5,8.92 h -23.25 v 16.75 h 23.25 c 15.04,0 45.29,-0.78 58.5,-8.91 9.74,-5.98 11.59,-18.34 11.59,-28.86 0,-2.76 -0.14,-5.48 -0.5,-8.13 z m 617.41,0 c -1.03,8.01 -3.93,15.84 -11.08,20.23 -13.21,8.13 -43.47,8.92 -58.51,8.92 h -23.25 v 16.75 h 23.25 c 15.04,0 45.3,-0.78 58.51,-8.91 9.74,-5.98 11.58,-18.34 11.58,-28.86 0,-2.76 -0.14,-5.49 -0.5,-8.13 z m 994.97,36.97 c -27.02,0 -48.81,-9.46 -64.9,-31.42 -17.68,-24.13 -23.35,-56.19 -24.21,-85.88 -0.08,2.8 -0.12,5.58 -0.12,8.33 0,31.94 4.96,67.87 24.33,94.31 16.09,21.95 37.88,31.41 64.9,31.41 26.96,0 48.48,-9.71 64.62,-31.47 19.57,-26.38 24.62,-62.25 24.62,-94.25 0,-2.76 -0.04,-5.54 -0.12,-8.34 -0.87,29.74 -6.63,61.74 -24.5,85.83 -16.14,21.76 -37.66,31.48 -64.62,31.48 z m 703.51,-36.97 c -1.03,8.02 -3.93,15.84 -11.08,20.23 -13.22,8.13 -43.47,8.92 -58.51,8.92 h -23.25 v 16.75 h 23.25 c 15.04,0 45.29,-0.78 58.51,-8.91 9.73,-5.98 11.58,-18.34 11.58,-28.86 0,-2.76 -0.14,-5.48 -0.5,-8.13 z m 1727.5,-103.91 -20.55,72.81 -20.89,-72.81 h -4.81 l 25.7,89.57 25.29,-89.57 h -4.74"
         style="fill:#0085d6;fill-opacity:1;fill-rule:evenodd;stroke:none"
         id="path16" />
      <path
         d="m 2639.29,3207.87 687.64,-652.05 H 1953.94 Z"
         style="fill:#172349;fill-opacity:1;fill-rule:evenodd;stroke:none"
         id="path18" />
      <path
         d="m 1214.91,1638.29 h 4811.7 v -98.26 h -4811.7 v 98.26"
         style="fill:#667089;fill-opacity:1;fill-rule:evenodd;stroke:none"
         id="path20" />
      <path
         d="m 4600.77,3207.87 687.65,-652.05 H 3915.43 Z"
         style="fill:#172349;fill-opacity:1;fill-rule:evenodd;stroke:none"
         id="path22" />
      <path
         d="m 3064.59,3173.18 556.55,528.92 555.4,-528.92 -555.4,-517.04 -556.55,517.04"
         style="fill:#172349;fill-opacity:1;fill-rule:evenodd;stroke:none"
         id="path24" />
      <path
         d="m 2800.14,2970.91 -169.23,-24.68 v -112.95 h 169.23 z m -201.67,-29.41 -117.74,-17.17 v -91.05 h 117.74 z m -117.74,-140.66 v -96.94 l 117.74,-17.78 v 114.72 z m 150.18,-119.62 169.23,-25.56 v 145.18 h -169.23 v -119.62"
         style="fill:#0085d6;fill-opacity:1;fill-rule:evenodd;stroke:none"
         id="path26" />
      <path
         d="m 4442.22,2970.91 169.23,-24.68 v -112.95 h -169.23 z m 201.67,-29.41 117.75,-17.17 v -91.05 h -117.75 z m 117.75,-140.66 v -96.94 l -117.75,-17.78 v 114.72 z m -150.19,-119.62 -169.23,-25.56 v 145.18 h 169.23 v -119.62"
         style="fill:#0085d6;fill-opacity:1;fill-rule:evenodd;stroke:none"
         id="path28" />
      <path
         d="m 3474.23,3390.32 h 135.88 v -135.87 h -135.88 z m 172.12,0 h 135.87 v -135.87 h -135.87 z m -172.12,-167.91 h 135.88 v -135.87 h -135.88 z m 172.12,0 h 135.87 v -135.87 h -135.87 v 135.87"
         style="fill:#0085d6;fill-opacity:1;fill-rule:evenodd;stroke:none"
         id="path30" />
      <path
         d="m 1736.91,2946.68 c 60.36,17.19 94.03,53.64 100.92,109.46 6.89,-55.82 40.57,-92.27 100.92,-109.46 -61.1,-16.26 -94.48,-52.73 -100.92,-108.88 -6.44,56.15 -39.82,92.62 -100.92,108.88"
         style="fill:#172349;fill-opacity:1;fill-rule:evenodd;stroke:none"
         id="path32" />
      <path
         d="m 1632.31,3234.58 c 47.4,13.5 73.86,42.13 79.27,85.97 5.41,-43.84 31.86,-72.47 79.27,-85.97 -47.99,-12.77 -74.21,-41.43 -79.27,-85.53 -5.06,44.1 -31.28,72.76 -79.27,85.53"
         style="fill:#172349;fill-opacity:1;fill-rule:evenodd;stroke:none"
         id="path34" />
      <path
         d="M 137.078,1791.72 16.3086,2226.27 H 133.777 l 71.27,-310.11 75.234,310.11 H 382.57 l 70.614,-310.11 78.535,310.11 H 640.605 L 520.496,1791.72 H 397.09 l -67.317,255.39 -69.949,-255.39 z m 690.664,0 164.324,434.55 h 111.524 l 164.99,-434.55 h -121.43 l -28.38,85.99 H 977.547 l -29.035,-85.99 z m 178.188,172.64 h 83.8 l -41.57,147.25 z m 500.6,-172.64 v 434.55 h 133.31 c 51.91,0 90.85,-3.26 116.8,-9.77 25.97,-6.52 47.96,-18.68 66,-36.49 24.64,-23.89 36.96,-55.16 36.96,-93.81 0,-56.03 -27.28,-95.34 -81.83,-117.93 l 108.22,-176.55 h -134.63 l -87.76,157.66 h -40.92 v -157.66 z m 116.15,347.25 v -102.94 h 31.68 c 31.68,0 54,4.02 66.98,12.05 12.98,8.04 19.47,21.62 19.47,40.72 0,19.11 -5.83,32.25 -17.49,39.42 -11.66,7.16 -33.33,10.75 -65,10.75 z m 501.27,-347.25 v 434.55 h 133.3 c 51.92,0 90.85,-3.26 116.81,-9.77 25.96,-6.52 47.96,-18.68 65.99,-36.49 24.64,-23.89 36.96,-55.16 36.96,-93.81 0,-56.03 -27.28,-95.34 -81.83,-117.93 l 108.23,-176.55 h -134.63 l -87.77,157.66 h -40.92 v -157.66 z m 116.14,347.25 v -102.94 h 31.68 c 31.68,0 54,4.02 66.98,12.05 12.98,8.04 19.47,21.62 19.47,40.72 0,19.11 -5.83,32.25 -17.49,39.42 -11.66,7.16 -33.32,10.75 -65,10.75 z m 617.41,87.3 v -434.55 h -116.14 v 434.55 z m 482.79,-444.32 c -66.87,0 -120.76,20.73 -161.68,62.21 -40.91,41.48 -61.37,96.32 -61.37,164.51 0,68.19 20.46,123.13 61.37,164.83 40.92,41.7 94.81,62.54 161.68,62.54 66.87,0 120.66,-20.74 161.36,-62.22 40.69,-41.48 61.04,-96.53 61.04,-165.15 0,-68.19 -20.35,-123.03 -61.04,-164.51 -40.7,-41.48 -94.49,-62.21 -161.36,-62.21 z m 0,364.84 c -32.11,0 -57.08,-12.16 -74.9,-36.49 -17.82,-24.32 -26.73,-58.2 -26.73,-101.63 0,-43 8.91,-76.66 26.73,-100.98 17.82,-24.33 42.79,-36.49 74.9,-36.49 31.68,0 56.54,12.16 74.58,36.49 18.03,24.32 27.05,57.98 27.05,100.98 0,43.43 -9.02,77.31 -27.05,101.63 -18.04,24.33 -42.9,36.49 -74.58,36.49 z m 482.13,-355.07 v 434.55 h 133.31 c 51.91,0 90.85,-3.26 116.81,-9.77 25.96,-6.52 47.95,-18.68 65.99,-36.49 24.64,-23.89 36.96,-55.16 36.96,-93.81 0,-56.03 -27.28,-95.34 -81.84,-117.93 l 108.23,-176.55 h -134.63 l -87.76,157.66 h -40.92 v -157.66 z m 116.15,347.25 v -102.94 h 31.68 c 31.68,0 54,4.02 66.98,12.05 12.98,8.04 19.47,21.62 19.47,40.72 0,19.11 -5.83,32.25 -17.49,39.42 -11.66,7.16 -33.33,10.75 -65,10.75 z m 901.18,-347.25 -120.76,434.55 h 117.47 l 71.27,-310.11 75.23,310.11 h 102.29 l 70.61,-310.11 78.53,310.11 h 108.89 l -120.1,-434.55 h -123.41 l -67.32,255.39 -69.95,-255.39 z m 690.67,0 164.32,434.55 h 111.54 l 164.98,-434.55 h -121.43 l -28.38,85.99 h -141.22 l -29.04,-85.99 z m 178.18,172.64 h 83.81 l -41.57,147.25 z m 828.6,130.96 v -3.26 h -107.57 c -0.44,19.98 -5.39,34.42 -14.85,43.32 -9.46,8.91 -24.75,13.36 -45.87,13.36 -35.63,0 -53.45,-11.08 -53.45,-33.22 0,-8.26 2.86,-14.77 8.58,-19.55 5.71,-4.78 16.94,-10.64 33.66,-17.59 6.16,-2.61 20.23,-8.47 42.23,-17.59 47.95,-19.99 80.95,-37.36 98.99,-52.12 29.03,-23.89 43.55,-54.51 43.55,-91.87 0,-41.69 -16.16,-74.59 -48.5,-98.69 -32.34,-24.11 -76.22,-36.16 -131.66,-36.16 -59.83,0 -105.47,12.92 -136.93,38.76 -31.46,25.84 -47.19,63.3 -47.19,112.38 v 7.82 h 107.57 c 2.2,-25.62 9.46,-44.09 21.78,-55.37 12.32,-11.3 31.23,-16.94 56.75,-16.94 39.6,0 59.4,11.94 59.4,35.83 0,9.12 -3.3,16.61 -9.9,22.48 -6.6,5.86 -19.36,12.91 -38.28,21.17 l -47.51,20.19 c -47.52,20.42 -80.95,40.72 -100.31,60.92 -19.36,20.2 -29.04,45.06 -29.04,74.6 0,40.39 15.51,72.53 46.52,96.42 31.02,23.89 72.71,35.83 125.06,35.83 81.39,0 132.87,-23.67 154.43,-71.01 8.35,-18.24 12.54,-41.48 12.54,-69.71 z m 377.19,130.95 v -165.48 h 156.41 v 165.48 h 116.81 V 1791.72 H 7070.8 v 182.42 h -156.41 v -182.42 h -116.14 v 434.55 h 116.14"
         style="fill:#172349;fill-opacity:1;fill-rule:nonzero;stroke:none"
         id="path36" />
      <path
         d="M 137.078,1791.72 16.3086,2226.27 H 133.777 l 71.27,-310.11 75.234,310.11 H 382.57 l 70.614,-310.11 78.535,310.11 H 640.605 L 520.496,1791.72 H 397.09 l -67.317,255.39 -69.949,-255.39 z m 690.664,0 164.324,434.55 h 111.524 l 164.99,-434.55 h -121.43 l -28.38,85.99 H 977.547 l -29.035,-85.99 z m 178.188,172.64 h 83.8 l -41.57,147.25 z m 500.6,-172.64 v 434.55 h 133.31 c 51.91,0 90.85,-3.26 116.8,-9.77 25.97,-6.52 47.96,-18.68 66,-36.49 24.64,-23.89 36.96,-55.16 36.96,-93.81 0,-56.03 -27.28,-95.34 -81.83,-117.93 l 108.22,-176.55 h -134.63 l -87.76,157.66 h -40.92 v -157.66 z m 116.15,347.25 v -102.94 h 31.68 c 31.68,0 54,4.02 66.98,12.05 12.98,8.04 19.47,21.62 19.47,40.72 0,19.11 -5.83,32.25 -17.49,39.42 -11.66,7.16 -33.33,10.75 -65,10.75 z m 501.27,-347.25 v 434.55 h 133.3 c 51.92,0 90.85,-3.26 116.81,-9.77 25.96,-6.52 47.96,-18.68 65.99,-36.49 24.64,-23.89 36.96,-55.16 36.96,-93.81 0,-56.03 -27.28,-95.34 -81.83,-117.93 l 108.23,-176.55 h -134.63 l -87.77,157.66 h -40.92 v -157.66 z m 116.14,347.25 v -102.94 h 31.68 c 31.68,0 54,4.02 66.98,12.05 12.98,8.04 19.47,21.62 19.47,40.72 0,19.11 -5.83,32.25 -17.49,39.42 -11.66,7.16 -33.32,10.75 -65,10.75 z m 617.41,87.3 v -434.55 h -116.14 v 434.55 z m 482.79,-444.32 c -66.87,0 -120.76,20.73 -161.68,62.21 -40.91,41.48 -61.37,96.32 -61.37,164.51 0,68.19 20.46,123.13 61.37,164.83 40.92,41.7 94.81,62.54 161.68,62.54 66.87,0 120.66,-20.74 161.36,-62.22 40.69,-41.48 61.04,-96.53 61.04,-165.15 0,-68.19 -20.35,-123.03 -61.04,-164.51 -40.7,-41.48 -94.49,-62.21 -161.36,-62.21 z m 0,364.84 c -32.11,0 -57.08,-12.16 -74.9,-36.49 -17.82,-24.32 -26.73,-58.2 -26.73,-101.63 0,-43 8.91,-76.66 26.73,-100.98 17.82,-24.33 42.79,-36.49 74.9,-36.49 31.68,0 56.54,12.16 74.58,36.49 18.03,24.32 27.05,57.98 27.05,100.98 0,43.43 -9.02,77.31 -27.05,101.63 -18.04,24.33 -42.9,36.49 -74.58,36.49 z m 482.13,-355.07 v 434.55 h 133.31 c 51.91,0 90.85,-3.26 116.81,-9.77 25.96,-6.52 47.95,-18.68 65.99,-36.49 24.64,-23.89 36.96,-55.16 36.96,-93.81 0,-56.03 -27.28,-95.34 -81.84,-117.93 l 108.23,-176.55 h -134.63 l -87.76,157.66 h -40.92 v -157.66 z m 116.15,347.25 v -102.94 h 31.68 c 31.68,0 54,4.02 66.98,12.05 12.98,8.04 19.47,21.62 19.47,40.72 0,19.11 -5.83,32.25 -17.49,39.42 -11.66,7.16 -33.33,10.75 -65,10.75 z m 901.18,-347.25 -120.76,434.55 h 117.47 l 71.27,-310.11 75.23,310.11 h 102.29 l 70.61,-310.11 78.53,310.11 h 108.89 l -120.1,-434.55 h -123.41 l -67.32,255.39 -69.95,-255.39 z m 690.67,0 164.32,434.55 h 111.54 l 164.98,-434.55 h -121.43 l -28.38,85.99 h -141.22 l -29.04,-85.99 z m 178.18,172.64 h 83.81 l -41.57,147.25 z m 828.6,130.96 v -3.26 h -107.57 c -0.44,19.98 -5.39,34.42 -14.85,43.32 -9.46,8.91 -24.75,13.36 -45.87,13.36 -35.63,0 -53.45,-11.08 -53.45,-33.22 0,-8.26 2.86,-14.77 8.58,-19.55 5.71,-4.78 16.94,-10.64 33.66,-17.59 6.16,-2.61 20.23,-8.47 42.23,-17.59 47.95,-19.99 80.95,-37.36 98.99,-52.12 29.03,-23.89 43.55,-54.51 43.55,-91.87 0,-41.69 -16.16,-74.59 -48.5,-98.69 -32.34,-24.11 -76.22,-36.16 -131.66,-36.16 -59.83,0 -105.47,12.92 -136.93,38.76 -31.46,25.84 -47.19,63.3 -47.19,112.38 v 7.82 h 107.57 c 2.2,-25.62 9.46,-44.09 21.78,-55.37 12.32,-11.3 31.23,-16.94 56.75,-16.94 39.6,0 59.4,11.94 59.4,35.83 0,9.12 -3.3,16.61 -9.9,22.48 -6.6,5.86 -19.36,12.91 -38.28,21.17 l -47.51,20.19 c -47.52,20.42 -80.95,40.72 -100.31,60.92 -19.36,20.2 -29.04,45.06 -29.04,74.6 0,40.39 15.51,72.53 46.52,96.42 31.02,23.89 72.71,35.83 125.06,35.83 81.39,0 132.87,-23.67 154.43,-71.01 8.35,-18.24 12.54,-41.48 12.54,-69.71 z m 377.19,130.95 v -165.48 h 156.41 v 165.48 h 116.81 V 1791.72 H 7070.8 v 182.42 h -156.41 v -182.42 h -116.14 v 434.55 h 116.14"
         style="fill:#172349;fill-opacity:1;fill-rule:nonzero;stroke:none"
         id="path38" />
      <path
         d="m 2018.31,3286.44 c 47.41,13.51 73.86,42.14 79.28,85.98 5.41,-43.84 31.86,-72.47 79.27,-85.98 -48,-12.77 -74.22,-41.42 -79.27,-85.51 -5.07,44.09 -31.29,72.74 -79.28,85.51"
         style="fill:#172349;fill-opacity:1;fill-rule:evenodd;stroke:none"
         id="path40" />
      <path
         d="m 5500.72,2946.68 c -60.35,17.19 -94.03,53.64 -100.92,109.46 -6.89,-55.82 -40.57,-92.27 -100.92,-109.46 61.1,-16.26 94.48,-52.73 100.92,-108.88 6.44,56.15 39.83,92.62 100.92,108.88"
         style="fill:#172349;fill-opacity:1;fill-rule:evenodd;stroke:none"
         id="path42" />
      <path
         d="m 5605.32,3234.58 c -47.41,13.5 -73.86,42.13 -79.27,85.97 -5.41,-43.84 -31.86,-72.47 -79.27,-85.97 47.99,-12.77 74.21,-41.43 79.27,-85.53 5.06,44.1 31.28,72.76 79.27,85.53"
         style="fill:#172349;fill-opacity:1;fill-rule:evenodd;stroke:none"
         id="path44" />
      <path
         d="m 5219.32,3286.44 c -47.41,13.51 -73.86,42.14 -79.27,85.98 -5.42,-43.84 -31.87,-72.47 -79.27,-85.98 47.99,-12.77 74.2,-41.42 79.27,-85.51 5.06,44.09 31.28,72.74 79.27,85.51"
         style="fill:#172349;fill-opacity:1;fill-rule:evenodd;stroke:none"
         id="path46" />
      <path
         d="m 2184.73,1313.18 c 2.98,1.3 7.11,3.16 10.18,4.11 2.27,0.71 5.41,1.53 7.72,2.55 l 0.11,-0.25 c -5.98,-2.62 -20.03,-13.49 -24.49,-17.95 -1.42,-1.43 -2.45,-2.58 -3.81,-4.01 -1.21,-1.29 -2.23,-2.82 -3.24,-4.24 -1.31,-1.82 -3.02,-4.59 -3.85,-6.65 -0.41,-0.99 -0.78,-1.36 -1.17,-2.4 -0.35,-0.96 -0.32,-1.4 -0.71,-2.38 -0.39,-1.02 -0.47,-1.47 -0.73,-2.57 -0.88,-3.76 -1.15,-6.44 -1.18,-10.55 -0.01,-1.95 0.12,-3.6 0.08,-5.54 -0.04,-1.91 -0.16,-3.51 -0.4,-5.35 -1.9,-15.14 -11.04,-9.16 -12.45,-5.93 -4.16,9.51 -3.66,20.09 -0.23,28.84 2.27,5.78 4.58,9.87 8.85,14.69 6.32,7.15 15.86,13.49 25.32,17.63 z m 58.86,-127.88 -0.03,-0.01 c -12.33,-5.4 -17.04,-7.1 -30.44,-8 -1.2,-0.08 -2.41,-0.13 -3.71,-0.09 l -10.5,0.78 c -5.24,0.65 -8.39,1.9 -13.05,3.14 -1.34,0.36 -4.9,1.76 -6.2,2.4 -2.14,1.07 -4.05,1.94 -6.14,3.05 -14.03,7.37 -28.92,22.64 -35.57,37.84 l -2.91,6.64 c -3.19,7.3 -5.52,19.37 -5.47,27.23 0.04,4.68 0.03,9.23 0.82,13.96 l 1.73,8.3 c 0.12,0.51 0.2,0.98 0.36,1.49 l 0.97,3.08 c 0.47,1.19 0.57,1.96 1,3.08 5,12.98 13.05,24.41 24.12,33.19 6.88,5.47 10.47,7.21 17.39,10.25 l 2.56,1.11 c 9.49,4.15 26.49,6.06 36.77,6.42 1.9,0.06 3.89,0.17 5.78,0.16 14.23,-0.04 24.79,-0.39 39.09,-1.75 24.64,-2.34 41.49,-5.14 64.76,-8.57 2.11,-0.32 31.35,-4.5 32.13,-4.95 -18.51,-8.1 -30.71,-18.45 -40.4,-30.08 -1.26,-1.52 -2.34,-2.85 -3.45,-4.36 -1.04,-1.39 -2.17,-2.94 -3.16,-4.47 -7.36,-11.26 -9.98,-16.84 -15.29,-28.28 l -13.23,-29.3 c -0.89,-1.63 -1.54,-3.15 -2.39,-4.77 -7.63,-14.48 -19.36,-30.41 -35.54,-37.49"
         style="fill:#0085d6;fill-opacity:1;fill-rule:evenodd;stroke:none"
         id="path48" />
      <path
         d="m 2499.18,1288.46 c 2.09,0.91 4.97,2.21 7.12,2.88 1.59,0.5 3.79,1.07 5.41,1.78 l 0.07,-0.17 c -4.19,-1.84 -14.01,-9.44 -17.13,-12.56 -0.99,-1 -1.71,-1.8 -2.66,-2.81 -0.85,-0.9 -1.56,-1.97 -2.28,-2.96 -0.91,-1.27 -2.1,-3.21 -2.69,-4.66 -0.28,-0.69 -0.54,-0.94 -0.81,-1.67 -0.24,-0.67 -0.23,-0.98 -0.5,-1.66 -0.27,-0.72 -0.33,-1.04 -0.51,-1.8 -0.61,-2.63 -0.8,-4.51 -0.82,-7.38 -0.01,-1.36 0.08,-2.52 0.05,-3.88 -0.02,-1.33 -0.11,-2.45 -0.28,-3.74 -1.33,-10.59 -7.72,-6.41 -8.7,-4.15 -2.91,6.66 -2.56,14.06 -0.16,20.18 1.58,4.04 3.2,6.9 6.18,10.28 4.42,4.99 11.1,9.43 17.71,12.32 z m 41.17,-89.44 -0.02,-0.01 c -8.63,-3.78 -11.92,-4.97 -21.29,-5.6 -0.84,-0.05 -1.68,-0.09 -2.59,-0.06 l -7.35,0.54 c -3.66,0.46 -5.87,1.33 -9.12,2.2 -0.95,0.25 -3.43,1.23 -4.34,1.68 -1.5,0.75 -2.83,1.36 -4.3,2.13 -9.81,5.16 -20.23,15.84 -24.88,26.47 l -2.03,4.65 c -2.23,5.1 -3.86,13.54 -3.82,19.04 0.02,3.27 0.01,6.46 0.57,9.76 l 1.21,5.81 c 0.08,0.35 0.14,0.69 0.25,1.04 l 0.68,2.16 c 0.32,0.83 0.39,1.37 0.7,2.15 3.5,9.08 9.12,17.07 16.86,23.22 4.82,3.82 7.33,5.04 12.17,7.16 l 1.79,0.78 c 6.64,2.91 18.53,4.24 25.72,4.49 1.33,0.05 2.72,0.12 4.04,0.12 9.95,-0.04 17.34,-0.28 27.34,-1.23 17.24,-1.63 29.02,-3.59 45.3,-6 1.47,-0.22 21.93,-3.14 22.47,-3.46 -12.94,-5.66 -21.48,-12.9 -28.25,-21.04 -0.89,-1.06 -1.64,-1.99 -2.42,-3.04 -0.72,-0.98 -1.51,-2.06 -2.21,-3.13 -5.15,-7.88 -6.98,-11.78 -10.7,-19.78 l -9.25,-20.49 c -0.61,-1.15 -1.08,-2.2 -1.67,-3.34 -5.33,-10.13 -13.54,-21.27 -24.86,-26.22"
         style="fill:#0085d6;fill-opacity:1;fill-rule:evenodd;stroke:none"
         id="path50" />
      <path
         d="m 2349.93,1085.86 c 2.98,1.31 7.11,3.17 10.18,4.12 2.28,0.71 5.42,1.53 7.73,2.54 l 0.11,-0.24 c -5.99,-2.62 -20.04,-13.49 -24.49,-17.95 -1.42,-1.43 -2.45,-2.58 -3.81,-4.02 -1.22,-1.29 -2.23,-2.81 -3.25,-4.23 -1.3,-1.82 -3.01,-4.6 -3.85,-6.66 -0.4,-0.99 -0.78,-1.36 -1.16,-2.4 -0.35,-0.95 -0.33,-1.39 -0.71,-2.37 -0.4,-1.02 -0.47,-1.47 -0.73,-2.57 -0.89,-3.77 -1.15,-6.45 -1.18,-10.55 -0.02,-1.95 0.12,-3.6 0.08,-5.54 -0.04,-1.91 -0.17,-3.51 -0.4,-5.35 -1.91,-15.14 -11.04,-9.17 -12.45,-5.94 -4.16,9.52 -3.66,20.1 -0.23,28.85 2.26,5.78 4.57,9.87 8.84,14.7 6.32,7.14 15.87,13.48 25.32,17.61 z m 58.87,-127.868 -0.03,-0.015 c -12.34,-5.395 -17.05,-7.102 -30.44,-8 -1.21,-0.082 -2.41,-0.125 -3.71,-0.094 l -10.5,0.785 c -5.24,0.652 -8.4,1.895 -13.05,3.141 -1.35,0.359 -4.9,1.754 -6.2,2.398 -2.15,1.074 -4.05,1.945 -6.15,3.047 -14.03,7.375 -28.92,22.641 -35.56,37.844 l -2.91,6.642 c -3.19,7.3 -5.52,19.37 -5.47,27.23 0.03,4.68 0.02,9.23 0.82,13.96 l 1.73,8.29 c 0.12,0.51 0.2,0.99 0.35,1.5 l 0.98,3.08 c 0.47,1.19 0.57,1.95 1,3.08 5,12.98 13.05,24.41 24.11,33.19 6.89,5.47 10.48,7.2 17.4,10.24 l 2.55,1.12 c 9.49,4.15 26.5,6.06 36.78,6.41 1.89,0.07 3.89,0.18 5.78,0.18 14.22,-0.06 24.79,-0.4 39.08,-1.76 24.65,-2.34 41.5,-5.14 64.77,-8.58 2.11,-0.3 31.35,-4.49 32.12,-4.95 -18.5,-8.09 -30.7,-18.44 -40.39,-30.07 -1.27,-1.52 -2.34,-2.85 -3.46,-4.36 -1.03,-1.39 -2.16,-2.94 -3.16,-4.48 -7.35,-11.25 -9.97,-16.83 -15.29,-28.28 l -13.22,-29.29 c -0.89,-1.637 -1.55,-3.148 -2.4,-4.77 -7.63,-14.48 -19.36,-30.414 -35.53,-37.488"
         style="fill:#0085d6;fill-opacity:1;fill-rule:evenodd;stroke:none"
         id="path52" />
      <path
         d="m 5052.42,1313.18 c -2.98,1.3 -7.11,3.16 -10.18,4.11 -2.28,0.71 -5.41,1.53 -7.72,2.55 l -0.11,-0.25 c 5.98,-2.62 20.03,-13.49 24.48,-17.95 1.43,-1.43 2.46,-2.58 3.82,-4.01 1.21,-1.29 2.22,-2.82 3.24,-4.24 1.3,-1.82 3.01,-4.59 3.85,-6.65 0.41,-0.99 0.78,-1.36 1.16,-2.4 0.35,-0.96 0.33,-1.4 0.72,-2.38 0.39,-1.02 0.47,-1.47 0.73,-2.57 0.88,-3.76 1.15,-6.44 1.18,-10.55 0.01,-1.95 -0.13,-3.6 -0.09,-5.54 0.05,-1.91 0.17,-3.51 0.41,-5.35 1.9,-15.14 11.04,-9.16 12.45,-5.93 4.16,9.51 3.66,20.09 0.23,28.84 -2.27,5.78 -4.58,9.87 -8.85,14.69 -6.32,7.15 -15.86,13.49 -25.32,17.63 z m -58.86,-127.88 0.03,-0.01 c 12.33,-5.4 17.04,-7.1 30.44,-8 1.2,-0.08 2.41,-0.13 3.7,-0.09 l 10.51,0.78 c 5.24,0.65 8.39,1.9 13.05,3.14 1.34,0.36 4.9,1.76 6.19,2.4 2.15,1.07 4.06,1.94 6.15,3.05 14.03,7.37 28.92,22.64 35.57,37.84 l 2.91,6.64 c 3.19,7.3 5.52,19.37 5.46,27.23 -0.03,4.68 -0.02,9.23 -0.82,13.96 l -1.72,8.3 c -0.12,0.51 -0.21,0.98 -0.36,1.49 l -0.97,3.08 c -0.47,1.19 -0.57,1.96 -1,3.08 -5,12.98 -13.06,24.41 -24.12,33.19 -6.88,5.47 -10.47,7.21 -17.4,10.25 l -2.55,1.11 c -9.49,4.15 -26.49,6.06 -36.77,6.42 -1.9,0.06 -3.9,0.17 -5.78,0.16 -14.23,-0.04 -24.79,-0.39 -39.09,-1.75 -24.65,-2.34 -41.49,-5.14 -64.76,-8.57 -2.11,-0.32 -31.35,-4.5 -32.13,-4.95 18.51,-8.1 30.7,-18.45 40.4,-30.08 1.26,-1.52 2.34,-2.85 3.45,-4.36 1.03,-1.39 2.17,-2.94 3.16,-4.47 7.36,-11.26 9.98,-16.84 15.29,-28.28 l 13.23,-29.3 c 0.89,-1.63 1.54,-3.15 2.39,-4.77 7.63,-14.48 19.36,-30.41 35.54,-37.49"
         style="fill:#0085d6;fill-opacity:1;fill-rule:evenodd;stroke:none"
         id="path54" />
      <path
         d="m 4737.96,1288.46 c -2.08,0.91 -4.96,2.21 -7.11,2.88 -1.6,0.5 -3.79,1.07 -5.4,1.78 l -0.08,-0.17 c 4.18,-1.84 14.01,-9.44 17.13,-12.56 0.99,-1 1.71,-1.8 2.66,-2.81 0.85,-0.9 1.56,-1.97 2.27,-2.96 0.91,-1.27 2.11,-3.21 2.7,-4.66 0.28,-0.69 0.54,-0.94 0.81,-1.67 0.24,-0.67 0.23,-0.98 0.49,-1.66 0.28,-0.72 0.34,-1.04 0.52,-1.8 0.61,-2.63 0.8,-4.51 0.82,-7.38 0.01,-1.36 -0.09,-2.52 -0.06,-3.88 0.03,-1.33 0.12,-2.45 0.29,-3.74 1.33,-10.59 7.71,-6.41 8.7,-4.15 2.91,6.66 2.56,14.06 0.16,20.18 -1.58,4.04 -3.2,6.9 -6.18,10.28 -4.42,4.99 -11.1,9.43 -17.72,12.32 z m -41.16,-89.44 0.02,-0.01 c 8.63,-3.78 11.91,-4.97 21.29,-5.6 0.84,-0.05 1.68,-0.09 2.59,-0.06 l 7.35,0.54 c 3.66,0.46 5.86,1.33 9.12,2.2 0.95,0.25 3.43,1.23 4.34,1.68 1.5,0.75 2.83,1.36 4.3,2.13 9.81,5.16 20.23,15.84 24.88,26.47 l 2.03,4.65 c 2.23,5.1 3.86,13.54 3.82,19.04 -0.02,3.27 -0.01,6.46 -0.57,9.76 l -1.21,5.81 c -0.08,0.35 -0.14,0.69 -0.25,1.04 l -0.68,2.16 c -0.33,0.83 -0.4,1.37 -0.7,2.15 -3.5,9.08 -9.13,17.07 -16.86,23.22 -4.82,3.82 -7.33,5.04 -12.18,7.16 l -1.78,0.78 c -6.64,2.91 -18.53,4.24 -25.72,4.49 -1.33,0.05 -2.72,0.12 -4.04,0.12 -9.95,-0.04 -17.34,-0.28 -27.34,-1.23 -17.24,-1.63 -29.03,-3.59 -45.3,-6 -1.48,-0.22 -21.93,-3.14 -22.47,-3.46 12.94,-5.66 21.47,-12.9 28.25,-21.04 0.89,-1.06 1.64,-1.99 2.42,-3.04 0.72,-0.98 1.51,-2.06 2.21,-3.13 5.14,-7.88 6.98,-11.78 10.7,-19.78 l 9.25,-20.49 c 0.61,-1.15 1.07,-2.2 1.67,-3.34 5.33,-10.13 13.54,-21.27 24.86,-26.22"
         style="fill:#0085d6;fill-opacity:1;fill-rule:evenodd;stroke:none"
         id="path56" />
      <path
         d="m 4887.21,1085.86 c -2.97,1.31 -7.1,3.17 -10.17,4.12 -2.28,0.71 -5.42,1.53 -7.73,2.54 l -0.11,-0.24 c 5.98,-2.62 20.04,-13.49 24.49,-17.95 1.42,-1.43 2.45,-2.58 3.81,-4.02 1.21,-1.29 2.23,-2.81 3.25,-4.23 1.3,-1.82 3.01,-4.6 3.84,-6.66 0.41,-0.99 0.79,-1.36 1.17,-2.4 0.35,-0.95 0.33,-1.39 0.71,-2.37 0.4,-1.02 0.47,-1.47 0.73,-2.57 0.89,-3.77 1.15,-6.45 1.18,-10.55 0.01,-1.95 -0.12,-3.6 -0.08,-5.54 0.04,-1.91 0.17,-3.51 0.4,-5.35 1.91,-15.14 11.04,-9.17 12.45,-5.94 4.16,9.52 3.66,20.1 0.23,28.85 -2.26,5.78 -4.58,9.87 -8.84,14.7 -6.33,7.14 -15.87,13.48 -25.33,17.61 z m -58.86,-127.868 0.03,-0.015 c 12.33,-5.395 17.05,-7.102 30.44,-8 1.21,-0.082 2.41,-0.125 3.71,-0.094 l 10.5,0.785 c 5.24,0.652 8.4,1.895 13.05,3.141 1.35,0.359 4.9,1.754 6.2,2.398 2.15,1.074 4.05,1.945 6.15,3.047 14.03,7.375 28.92,22.641 35.57,37.844 l 2.9,6.642 c 3.19,7.3 5.52,19.37 5.47,27.23 -0.03,4.68 -0.02,9.23 -0.82,13.96 l -1.73,8.29 c -0.12,0.51 -0.2,0.99 -0.35,1.5 l -0.98,3.08 c -0.47,1.19 -0.57,1.95 -1,3.08 -5,12.98 -13.05,24.41 -24.11,33.19 -6.89,5.47 -10.48,7.2 -17.4,10.24 l -2.55,1.12 c -9.49,4.15 -26.5,6.06 -36.78,6.41 -1.89,0.07 -3.89,0.18 -5.78,0.18 -14.23,-0.06 -24.79,-0.4 -39.08,-1.76 -24.65,-2.34 -41.5,-5.14 -64.77,-8.58 -2.11,-0.3 -31.35,-4.49 -32.13,-4.95 18.51,-8.09 30.71,-18.44 40.4,-30.07 1.26,-1.52 2.34,-2.85 3.46,-4.36 1.03,-1.39 2.16,-2.94 3.16,-4.48 7.35,-11.25 9.97,-16.83 15.29,-28.28 l 13.23,-29.29 c 0.88,-1.637 1.53,-3.148 2.39,-4.77 7.63,-14.48 19.36,-30.414 35.53,-37.488"
         style="fill:#0085d6;fill-opacity:1;fill-rule:evenodd;stroke:none"
         id="path58" />
      <path
         d="m 4301.75,1430.73 -1557.67,-348.9 39.81,-71.12 1521.66,340.83 z M 3536.62,973.016 c -9.55,-8.164 -18.37,-15.891 -27.92,-22.297 -21.97,-14.731 -45.52,-25.481 -69.94,-44.899 -13.88,-11.031 -18.72,-26.918 -8.06,-44.027 -9.57,-14.445 -7.45,-28.012 3.89,-40.875 17.52,-16.305 36.57,-29.805 57.77,-39.398 -55.57,-48.547 -60.66,-93.403 18.22,-132.129 -20.44,-41.618 -17.84,-78.286 31.35,-104.942 -32.37,-79.23 67.14,-98.906 125.98,-103.754 l 15.74,-144.277 c 66.39,-3.375 128.74,9.816 187.67,37.105 l -29.18,90.571 c 22.58,0.347 44.5,4.258 66.02,10.297 35.88,-1.27 70.15,0.632 98.38,14.531 l 89.01,-30.996 c 89.15,78.047 163.58,170.808 220.72,280.867 -33.38,29.691 -162.12,43.934 -207.04,55.461 -115.97,29.766 -190.87,124.062 -286.31,186.09 l -54.88,18.922 -47.91,8.113 c -3.58,0.633 -8.47,2.773 -11.28,6.301 l 130.66,221.55 1.53,11.64 466.48,103.53 -1.01,21.09 -1512.55,-338.795 9.5,-16.976 537.17,119.531 8.49,-10.54 187.5,-111.694"
         style="fill:#667089;fill-opacity:1;fill-rule:evenodd;stroke:none"
         id="path60" />
      <path
         d="m 2793.96,992.695 1512.55,338.795 -0.96,20.05 -1521.66,-340.83 10.07,-18.015"
         style="fill:#ffffff;fill-opacity:1;fill-rule:evenodd;stroke:none"
         id="path62" />
      <path
         d="m 3467.98,833.094 -27.53,19.48 c -4.65,-8.312 -2.82,-14.914 3.61,-22.39 8.27,-7.657 17.01,-14.75 26.27,-21.063 6.74,4.992 11.29,14.406 -2.35,23.973"
         style="fill:#ffffff;fill-opacity:1;fill-rule:evenodd;stroke:none"
         id="path64" />
      <path
         d="m 3668.77,776.457 c -68.46,-13.836 -120.54,-11.949 -160.9,1.199 l -6.84,-5.98 c -52.78,-46.11 -48.98,-77.996 12.85,-109.129 50.58,-2.109 99.12,0.933 148.96,13.133 22.7,-2.903 51.94,-1.492 70.05,11.125 -39.21,-8.36 -65.84,-13.649 -73.84,41.32 -0.72,4.953 7.41,7.613 9.21,3.094 7.71,-19.301 4.09,-33.043 26.81,-37.91 5.32,-1.137 31.66,2.582 49.81,6.402 22.48,37.922 -18.32,87.211 -76.11,76.746"
         style="fill:#ffffff;fill-opacity:1;fill-rule:evenodd;stroke:none"
         id="path66" />
      <path
         d="m 3765.39,669.586 c -83.14,-14.109 -158.68,-24.77 -240.81,-21.508 l -2.17,-4.422 c -19.14,-38.965 -13.77,-66.09 25.8,-87.543 l 10.39,-5.629 -1.43,-3.492 c 120.58,0.051 127.97,26.793 194,22.141 16.54,-1.164 29.65,7.371 38.57,19.922 -47.36,-9.133 -81.24,-19.621 -68.63,39.433 1.05,4.95 10.14,7.61 10.32,3.09 0.78,-19.301 -7.77,-33.043 13.2,-37.906 4.85,-1.129 31.91,2.488 51.38,6.258 14.72,31.879 7.46,76.117 -30.62,69.656"
         style="fill:#ffffff;fill-opacity:1;fill-rule:evenodd;stroke:none"
         id="path68" />
      <path
         d="m 3723.48,547.398 c -52.45,-4.492 -112.44,-11.218 -170.83,-11.718 -7.95,-22.254 -3.54,-38.735 12.67,-51.68 44.78,-10.387 90.19,-16.82 137.18,-13.098 9.64,0.203 19.83,6.637 28.31,15.692 -33.85,-6.461 -58.26,-14.453 -49.32,27.48 0.74,3.477 7.13,5.348 7.26,2.172 0.55,-13.558 -5.46,-23.211 9.27,-26.629 3.69,-0.855 25.74,2.207 39.43,5.071 16.93,23.566 21.48,55.742 -13.97,52.71"
         style="fill:#ffffff;fill-opacity:1;fill-rule:evenodd;stroke:none"
         id="path70" />
      <path
         d="m 3446.36,861.66 c 3.66,-3.992 7.69,-7.176 11.99,-9.644 29.33,-16.868 71.76,-0.832 105.63,10.722 14.22,5.762 17.34,14.422 15.54,29.789 0.71,6.149 14.14,16.664 21.14,9.762 10.96,-10.816 24.01,-8.926 38.72,-8.848 44.28,0.235 64.87,-12.168 95.2,-39.929 57.61,13.484 21.46,-14.176 1.19,-39.395 -10.46,-11.172 -10.89,-23.914 -1.39,-31.648 64.08,-52.172 35.86,-94.086 78,-107.953 32.85,-10.813 67.47,-5.368 102.95,6.453 9.08,3.023 10.06,-5.278 5.77,-15.68 23.68,16.938 40.34,39.031 58.59,59.582 2.76,3.106 7.33,-0.828 6.04,-4.473 -5.34,-15.156 -15.02,-26.003 -20.93,-37.207 -1.47,-2.773 3.67,-9.187 6.2,-6.418 13.87,15.137 25.46,31.969 39.12,47.016 2.16,2.375 7.13,-0.652 5.56,-3.434 -13.02,-23.093 -29.18,-44.015 -43.77,-65.73 -1.72,-2.57 2.13,-4.613 4.68,-2.883 18.33,12.399 27.5,23.75 42.79,42.223 7.2,8.699 11.85,-3.344 7.05,-14.735 -21.11,-44.472 -58.65,-80.472 -106.52,-103 -7.16,-3.371 -10.5,8.192 -3.57,13.524 l 12.87,9.894 c 19.01,16.102 -36.82,4.618 -69.08,3.61 -8.96,-0.766 -12.06,-4.188 -9.46,-10.27 6.31,-24.082 2.4,-43.648 -10.1,-65.324 -9.11,-13.332 -6.1,-33.246 19.12,-32.457 26.35,0.82 115.83,50.242 115.65,31.488 -0.13,-14.031 -2.95,-26.734 2.64,-39.636 8.84,-13.274 34.07,7.421 38.52,24.39 2.48,9.446 -0.23,12.821 0.45,21.27 7.01,52.129 111.34,9.457 173.32,-19.75 43.39,50.047 81.88,104.988 115.02,165.281 -42.05,19.414 -127.08,29.617 -190.4,43.91 -76.14,17.184 -147.11,50.43 -182.45,92.438 -23.96,28.484 -117.59,27.847 -115.65,46.515 -0.23,44.864 -5.47,70.637 -15.8,72.914 -30.54,15.422 -69.21,22.356 -103.81,33.536 -14.27,9.023 -28.82,17.39 -44.98,22.042 -0.78,-1.574 -0.68,-3.277 0.28,-5.093 6.02,-5.102 12.38,-9.828 18.06,-15.301 5.05,-4.879 2.98,-10.695 -2.23,-9.281 -16.6,4.504 -26.97,16.347 -31.62,29.14 -3.17,-7.011 -4.23,-14.937 -4.14,-23.367 0.04,-3.547 -5.26,-1.519 -6,2.336 -3.78,19.606 -16.1,25.231 -34.91,24 -27.46,-1.793 -40.82,-19.254 -55.42,-34.828 3.94,-20.484 -3.48,-37.508 -49.07,-57.297 -5.49,-2.379 -8.9,3.816 -3.95,7 21.16,13.598 36.7,15.277 40.93,36.953 0.09,0.473 0.12,1.086 0.11,1.832 -3.61,-2.953 -7.47,-5.59 -11.73,-7.742 -38.71,-19.34 -95.26,-44.535 -66.15,-76.297"
         style="fill:#ffffff;fill-opacity:1;fill-rule:evenodd;stroke:none"
         id="path72" />
      <path
         d="m 3646.56,831.414 6.95,-36.43 c 0.42,-4.105 -1.17,-6.343 -3.92,-7.504 -15.64,-2.933 -31.27,-5.886 -46.9,-5.187 -15.9,0.711 -19.94,11.27 -12.63,23.105 9.08,14.692 25.04,23.516 41.64,31.364 7.78,3.465 13.64,1.058 14.86,-5.348"
         style="fill:#ffffff;fill-opacity:1;fill-rule:evenodd;stroke:none"
         id="path74" />
      <path
         d="m 3487.15,899.914 c 45.59,19.789 53.01,36.813 49.07,57.297 -3.82,-4.074 -7.72,-8.016 -11.98,-11.512 0.01,-0.746 -0.02,-1.359 -0.11,-1.832 -4.23,-21.676 -19.77,-23.355 -40.93,-36.953 -4.95,-3.184 -1.54,-9.379 3.95,-7"
         style="fill:#667089;fill-opacity:1;fill-rule:evenodd;stroke:none"
         id="path76" />
      <path
         d="M 5652.2,1457.81 C 5526.69,1042.56 5266.35,688.305 4928.88,435.055 4548.84,149.863 4089.89,4.78516 3623.92,4.78516 3157.93,4.78516 2698.99,149.863 2318.95,435.055 1981.48,688.305 1721.14,1042.56 1595.63,1457.81 h 111.14 c 123.7,-382.38 369.27,-707.38 683.66,-940.189 360.23,-266.762 793.77,-402 1233.49,-402 439.71,0 873.25,135.238 1233.48,402 314.39,232.809 559.96,557.809 683.65,940.189 h 111.15"
         style="fill:#667089;fill-opacity:1;fill-rule:evenodd;stroke:none"
         id="path78" />
      <path
         d="m 4600.96,3471.33 -259.74,-42.69 -711.79,519.02 749.77,-684.19 z m -979.8,483.88 -1.04,-0.76 -1.04,0.76 v -1.51 l -720.06,-525.06 -259.73,46.02 227.14,-214.31 754.73,694.86"
         style="fill:#172349;fill-opacity:1;fill-rule:evenodd;stroke:none"
         id="path80" />
      <path
         d="m 1214.91,2475.59 h 363.33 l 1061.05,999.07 227.14,-214.31 754.73,694.86 758.04,-691.74 221.76,207.86 1059.99,-995.74 h 365.66 v -98.26 h -4811.7 z m 1741.75,699.62 662.01,-624.59 663.42,621.82 -660.93,628.79 z M 1746.82,2475.59 H 3525.4 l -886.11,835.62 z m 1968.84,0 h 1769.8 l -884.3,839.02 -885.5,-839.02"
         style="fill:#667089;fill-opacity:1;fill-rule:evenodd;stroke:none"
         id="path82" />
    </g>
  </g>
</svg>
